<svg width="720" height="720" viewBox="0 0 720 720" xmlns="http://www.w3.org/2000/svg"><rect width="720" height="720" fill="#2ce2df"/><path d="M 0,720 C 0,720 0,120 0,120 C 32.502564102564094,115.90512820512821 65.00512820512819,111.81025641025641 109,121 C 152.9948717948718,130.18974358974359 208.48205128205126,152.66410256410256 248,150 C 287.51794871794874,147.33589743589744 311.0666666666667,119.53333333333333 350,110 C 388.9333333333333,100.46666666666667 443.25128205128203,109.20256410256408 483,123 C 522.748717948718,136.79743589743592 547.9282051282051,155.65641025641025 585,156 C 622.0717948717949,156.34358974358975 671.0358974358974,138.17179487179487 720,120 C 720,120 720,720 720,720 Z" fill="#ff8800" opacity="0.09999999999999999"/><path d="M 0,720 C 0,720 0,240 0,240 C 51.823076923076925,241.5974358974359 103.64615384615385,243.19487179487177 137,241 C 170.35384615384615,238.80512820512823 185.23846153846154,232.81794871794872 224,222 C 262.76153846153846,211.18205128205128 325.4,195.53333333333336 374,195 C 422.6,194.46666666666664 457.1615384615385,209.04871794871795 489,224 C 520.8384615384615,238.95128205128205 549.9538461538461,254.27179487179484 588,257 C 626.0461538461539,259.72820512820516 673.0230769230769,249.86410256410258 720,240 C 720,240 720,720 720,720 Z" fill="#ff8800" opacity="0.19999999999999998"/><path d="M 0,720 C 0,720 0,360 0,360 C 54.45128205128205,348.4051282051282 108.9025641025641,336.81025641025644 141,349 C 173.0974358974359,361.18974358974356 182.84102564102562,397.16410256410256 220,402 C 257.1589743589744,406.83589743589744 321.73333333333335,380.53333333333336 373,367 C 424.26666666666665,353.46666666666664 462.2256410256409,352.7025641025641 494,346 C 525.7743589743591,339.2974358974359 551.3641025641026,326.65641025641025 588,328 C 624.6358974358974,329.34358974358975 672.3179487179486,344.6717948717949 720,360 C 720,360 720,720 720,720 Z" fill="#ff8800" opacity="0.3"/><path d="M 0,720 C 0,720 0,480 0,480 C 41.917948717948704,470.9153846153846 83.83589743589741,461.83076923076925 120,452 C 156.1641025641026,442.16923076923075 186.57435897435897,431.59230769230777 226,442 C 265.425641025641,452.40769230769223 313.8666666666667,483.8 356,494 C 398.1333333333333,504.2 433.9589743589743,493.20769230769224 478,489 C 522.0410256410257,484.79230769230776 574.297435897436,487.36923076923085 616,487 C 657.702564102564,486.63076923076915 688.8512820512819,483.3153846153846 720,480 C 720,480 720,720 720,720 Z" fill="#ff8800" opacity="0.39999999999999997"/><path d="M 0,720 C 0,720 0,600 0,600 C 46.31282051282051,622.8153846153846 92.62564102564102,645.6307692307691 127,636 C 161.37435897435898,626.3692307692309 183.81025641025644,584.2923076923078 222,590 C 260.18974358974356,595.7076923076922 314.1333333333333,649.2 355,642 C 395.8666666666667,634.8 423.65641025641025,566.9076923076923 461,563 C 498.34358974358975,559.0923076923077 545.2410256410257,619.1692307692308 590,636 C 634.7589743589743,652.8307692307692 677.3794871794871,626.4153846153846 720,600 C 720,600 720,720 720,720 Z" fill="#ff8800" opacity="0.49999999999999994"/></svg>